<svg xmlns="http://www.w3.org/2000/svg" xmlns:xlink="http://www.w3.org/1999/xlink" viewBox="0 0 760 760" width="760" height="760">
  <rect width="760" height="760" rx="48" fill="#EEF2FF"/>
  <g transform="translate(0, 0)"><g transform="translate(0, 602)"><title>Objects/Scene/Floor Wood</title>
    <g id="Objects/Scene/Floor-Wood" stroke="none" stroke-width="1" fill="none" fill-rule="evenodd">
        <rect id="floor" fill="#D9B98C" x="0" y="20" width="760" height="130"></rect>
        <rect id="skirting" fill="#C49A6C" x="0" y="0" width="760" height="22"></rect>
        <rect id="skirting-shadow" fill-opacity="0.12" fill="#000000" x="0" y="20" width="760" height="6"></rect>
        <rect id="plank-1" fill-opacity="0.08" fill="#5A3E22" x="120" y="26" width="3" height="124"></rect>
        <rect id="plank-2" fill-opacity="0.08" fill="#5A3E22" x="300" y="26" width="3" height="124"></rect>
        <rect id="plank-3" fill-opacity="0.08" fill="#5A3E22" x="470" y="26" width="3" height="124"></rect>
        <rect id="plank-4" fill-opacity="0.08" fill="#5A3E22" x="640" y="26" width="3" height="124"></rect>
        <rect id="sheen" fill-opacity="0.10" fill="#FFFFFF" x="0" y="26" width="760" height="14"></rect>
    </g></g>
  <g transform="translate(56, 96) scale(0.85)"><title>Objects/Scene/Office Window</title>
    <g id="Objects/Scene/Office-Window" stroke="none" stroke-width="1" fill="none" fill-rule="evenodd">
        <rect id="frame" fill="#AFB9C5" x="6" y="6" width="188" height="188" rx="6"></rect>
        <rect id="sky" fill="#C1DEE2" x="16" y="16" width="168" height="168"></rect>
        <rect id="sky-low" fill="#D8ECEF" x="16" y="120" width="168" height="64"></rect>
        <circle id="sun" fill="#FF9B21" cx="146" cy="56" r="20"></circle>
        <rect id="cloud" fill="#FFFFFF" x="36" y="62" width="72" height="20" rx="10"></rect>
        <rect id="cloud-2" fill="#FFFFFF" fill-opacity="0.8" x="58" y="40" width="48" height="14" rx="7"></rect>
        <rect id="mullion-v" fill="#AFB9C5" x="96" y="16" width="8" height="168"></rect>
        <rect id="mullion-h" fill="#AFB9C5" x="16" y="96" width="168" height="8"></rect>
        <rect id="sill" fill="#C5CFD6" x="0" y="190" width="200" height="10" rx="3"></rect>
    </g></g>
  <g transform="translate(70, 470)"><title>Objects/Scene/Plant</title>
    <g id="Objects/Scene/Plant" stroke="none" stroke-width="1" fill="none" fill-rule="evenodd">
        <ellipse id="leaf-far" fill="#69A1AC" cx="30" cy="100" rx="9" ry="30" transform="rotate(-44 30 100)"></ellipse>
        <ellipse id="leaf-left" fill="#89C5CC" cx="42" cy="92" rx="12" ry="38" transform="rotate(-26 42 92)"></ellipse>
        <ellipse id="leaf-right" fill="#89C5CC" cx="78" cy="92" rx="12" ry="38" transform="rotate(26 78 92)"></ellipse>
        <ellipse id="leaf-center" fill="#69A1AC" cx="60" cy="72" rx="13" ry="46"></ellipse>
        <ellipse id="leaf-vein" fill="#4F818A" cx="60" cy="74" rx="3" ry="40"></ellipse>
        <polygon id="pot" fill="#B28B67" points="36,120 84,120 77,176 43,176"></polygon>
        <polygon id="pot-shade" fill-opacity="0.12" fill="#000000" points="64,120 84,120 77,176 60,176"></polygon>
        <rect id="rim" fill="#997659" x="32" y="112" width="56" height="10" rx="2"></rect>
    </g></g>
  <g transform="translate(383, 25) scale(1.2)"><title>Objects/Scene/Whiteboard</title>
    <g id="Objects/Scene/Whiteboard" stroke="none" stroke-width="1" fill="none" fill-rule="evenodd">
        <rect id="frame" fill="#AFB9C5" x="10" y="6" width="210" height="144" rx="4"></rect>
        <rect id="board" fill="#FFFFFF" x="18" y="14" width="194" height="128"></rect>
        <rect id="board-shade" fill-opacity="0.05" fill="#000000" x="18" y="14" width="194" height="128"></rect>
        <rect id="sticky" fill="#FF9B21" x="150" y="34" width="40" height="36" rx="2"></rect>
        <rect id="line-1" fill="#89C5CC" x="32" y="34" width="96" height="7" rx="3"></rect>
        <rect id="line-2" fill="#191847" x="32" y="54" width="128" height="6" rx="3"></rect>
        <rect id="line-3" fill="#69A1AC" x="32" y="72" width="72" height="6" rx="3"></rect>
        <rect id="bar-1" fill="#89C5CC" x="150" y="96" width="12" height="34"></rect>
        <rect id="bar-2" fill="#191847" x="168" y="80" width="12" height="50"></rect>
        <rect id="bar-3" fill="#FF9B21" x="186" y="104" width="12" height="26"></rect>
        <rect id="leg-left" fill="#AFB9C5" x="44" y="150" width="8" height="56"></rect>
        <rect id="leg-right" fill="#AFB9C5" x="178" y="150" width="8" height="56"></rect>
    </g></g></g>
  <g transform="translate(215, 360)"><title>Bottom/Standing/Stand</title>
    <g id="Bottom/Standing/Stand" stroke="none" stroke-width="1" fill="none" fill-rule="evenodd">
        <polygon id="Leg-back" fill="#2F3676" points="150,0 182,0 176,213 156,213"></polygon>
        <polygon id="Leg-front" fill="#191847" points="118,0 150,0 146,213 126,213"></polygon>
        <g id="Shoe-back" transform="translate(150.000000, 199.000000)" fill="#191847">
            <path d="M0,40 L1,19 L22,19 C31.9576033,26 44.9576033,31.6666667 61,36 L61,40 L23,40 L10,38 L10,40 L0,40 Z" id="Shoe"></path>
        </g>
        <g id="Shoe-front" transform="translate(108.000000, 199.000000)" fill="#252F6E">
            <path d="M0,40 L1,19 L22,19 C31.9576033,26 44.9576033,31.6666667 61,36 L61,40 L23,40 L10,38 L10,40 L0,40 Z" id="Shoe"></path>
        </g>
    </g></g>
  <g transform="translate(237, 263)"><!-- Generator: Sketch 52.4 (67378) - http://www.bohemiancoding.com/sketch -->
    <title>Body/Pointing Up</title>
    <desc>Created with Sketch.</desc>
    <g id="Body/Pointing-Up" stroke="none" stroke-width="1" fill="none" fill-rule="evenodd">
        <path d="M191.456243,2.34082269 L229.360019,-9.03759567 C236.431,-14.5420411 243.100557,-18.5666331 249.36869,-21.1113719 C251.191683,-21.4545034 254.209733,-21.2552209 250.438302,-16.9769837 C246.666871,-12.6987465 242.892301,-8.02906778 243.969107,-6.23518449 C245.045914,-4.44130119 248.969279,-5.79360164 250.104775,-2.95198204 C250.861773,-1.05756897 244.361683,0.299249329 230.604506,1.11847287 L201.133571,18.4625605 L191.456243,2.34082269 Z M188.106855,69.1681252 L220.005126,92.5917238 C228.656594,94.9262021 235.884616,97.8306872 241.689192,101.305179 C243.060333,102.554584 244.717486,105.084837 239.031031,104.647546 C233.344575,104.210255 227.34361,104.006032 226.55899,105.945594 C225.774369,107.885156 229.215504,110.204659 227.629445,112.821636 C226.572072,114.566288 221.576617,110.191639 212.64308,99.6976902 L181.055424,86.5990869 L188.106855,69.1681252 Z" id="Skin" fill="#B28B67"></path>
        <path d="M126.984936,15.649923 C152.146796,42.4399518 182.83581,59.9216266 224.690767,75.4277614 L215.396057,94.0136202 C172.211363,89.9419212 149.124049,86.6900124 131.024869,59.8586619 C126.482342,53.1245369 118.360034,29.953677 113.494175,17.9210142 L126.984936,15.649923 Z" id="Coat-Back" fill="#2026A2" transform="translate(169.092471, 54.831772) rotate(15.000000) translate(-169.092471, -54.831772) "></path>
        <path d="M90,114 L167,114 C149.558211,60.8053811 140.648283,24.2959016 140.270216,4.47156148 C140.250941,3.46089747 138.384379,1.67996472 137.55857,1.91319372 C131.519523,3.61877223 125.057267,2.98104099 118.1718,0 C99.917485,29.3584068 93.6048263,65.5045499 90,114 Z" id="Shirt" fill="#F2F2F2"></path>
        <path d="M124.742502,0.0473953679 C146.814238,0.228130238 182.624,4.25865631 223.922675,-9 L228,11.3734803 C196.78685,31.4482286 165.18092,46.9990656 137.486251,44.790754 C149.512444,96.3770989 148.957979,138.605966 122.407472,138.605966 C109.728284,138.605966 96.0428359,138.605966 81.3511268,138.605966 C74.8304314,94.783947 91.9680949,34.0236152 107.855955,3.37659428 C108.462665,2.20627687 109.75441,-3.65929509e-13 112.797001,-3.65929509e-13 C115.448059,-3.65929509e-13 119.424647,-3.65929509e-13 124.726763,-3.65929509e-13 C124.73201,0.0157984696 124.737257,0.0315969258 124.742502,0.0473953679 Z" id="Coat-Front" fill="#1F28CF"></path>
    </g></g>
  <g transform="translate(297, 189)"><!-- Generator: Sketch 52.4 (67378) - http://www.bohemiancoding.com/sketch -->
    <title>Head/Front/Short Beard</title>
    <desc>Created with Sketch.</desc>
    <g id="Head/Front/Short-Beard" stroke="none" stroke-width="1" fill="none" fill-rule="evenodd">
        <g id="Head" transform="translate(54.000000, 31.000000)" fill="#B28B67">
            <path d="M8.26227388,34.4901268 C3.65436435,29.0813759 0.535634794,22.4528771 1.05677633,15.0254539 C2.55833022,-6.37502057 32.3485306,-1.66718886 38.1433414,9.13393292 C43.9381521,19.9350547 43.249578,47.3329958 35.7603014,49.2634576 C32.7735882,50.033323 26.4110012,48.1474609 19.935372,44.244306 L24,73 L0,73 L8.26227388,34.4901268 Z"></path>
        </g>
        <path d="M75.1353054,48.388929 C76.0539893,61.1861055 78.4841513,67.5846937 82.4257914,67.5846937 C88.3385979,67.5846937 93.355194,63.8310443 95.9495915,63.8310443 C97.8408192,63.8310443 97.4185661,66.1977405 96.1649615,67.9524776 C95.1306973,69.4001921 90.0939174,70.7956158 90.0939174,73.0400595 C90.0939174,75.2845031 94.0733913,73.5481008 94.0733913,74.8792364 C94.0733913,77.0810973 94.7727779,81.2209894 90.9512241,81.2209894 C87.0836843,81.2209894 75.9947625,79.8115837 74.0944216,74.0714721 C72.8679972,70.366972 72.0750257,62.6905548 71.7155071,51.0422204 C71.4808897,51.0143412 71.2421196,51 71,51 C67.6862915,51 65,53.6862915 65,57 C65,58.6822183 65.6922919,60.2027431 66.807515,61.292214 C65.4191964,63.2518162 63.8632894,65.2988831 62.0803863,67.4111902 C55.3824054,63.3926741 50.4121226,51.6289713 56.9604861,40.3282783 C58.7704744,34.7922446 62.8680346,31.8352408 67.7073518,30.4622091 C71.6274481,28.8224203 75.6968791,28.6375327 79.1320584,29.6205713 C85.8659611,30.1981637 91.8790132,32.2515132 93.5831606,33.4709469 C93.5831606,39.8461712 92.3478701,41.7376815 81.7968056,41.5709519 C79.204238,42.9401362 77.2112029,45.2978697 75.1353054,48.388929 Z" id="Hair" fill="#191847"></path>
    </g></g>
  <g transform="translate(237, 263)"><path d="M108,16 C120,30 136,30 148,16 L148,42 L106,42 Z" fill="#1F28CF"></path><path d="M120,22 C126,31 132,31 138,22 L138,42 L120,42 Z" fill="#F2F2F2"></path></g>
</svg>